<svg xmlns="http://www.w3.org/2000/svg" width="32" height="32"
    viewBox="0 0 20 19" fill="none">
    <path fill-rule="evenodd" clip-rule="evenodd"
        d="M9.55824 0.649902C9.53939 0.649902 9.52037 0.649902 9.50134 0.649902C6.96966 0.649902 4.53258 1.24259 2.17143 2.4371C1.21367 4.73096 0.67309 7.06299 0.644638 9.44269C0.606761 11.8034 1.09044 14.2215 2.16183 16.6872C4.62736 17.7672 7.09289 18.3215 9.55824 18.3502C12.0238 18.3215 14.4893 17.7672 16.9548 16.6872C18.0262 14.2215 18.5099 11.8034 18.472 9.44269C18.4436 7.06299 17.903 4.73096 16.9452 2.4371C14.5841 1.24259 12.147 0.649902 9.61515 0.649902C9.5963 0.649902 9.57727 0.649902 9.55824 0.649902Z"
        fill="#FEFEFE" />
    <path
        d="M1.77326 1.9114C4.25764 0.630859 6.83698 0 9.50149 0C9.52052 0 9.53955 0 9.5584 0C9.57742 0 9.59645 0 9.6153 0C12.28 0 14.8592 0.630859 17.3437 1.9114L17.4954 2.07395C18.5101 4.48233 19.0885 6.93874 19.117 9.43315C19.117 9.48082 19.117 9.51918 19.117 9.56685V9.7389C19.1074 12.138 18.5954 14.5845 17.4954 17.0694L17.3247 17.232C14.7359 18.3883 12.1472 18.9713 9.5584 19C6.96981 18.9713 4.38087 18.3883 1.79229 17.232L1.62158 17.0694C0.521558 14.5845 0.00942574 12.138 0 9.7389V9.56685C0 9.51918 0 9.48082 0 9.43315C0.0284518 6.93874 0.606913 4.48233 1.62158 2.07395L1.77326 1.9114ZM9.5584 0.649858C9.53955 0.649858 9.52052 0.649858 9.50149 0.649858C6.96981 0.649858 4.53273 1.24254 2.17159 2.43706C1.21383 4.73091 0.673242 7.06294 0.64479 9.44265C0.606913 11.8034 1.09059 14.2214 2.16199 16.6871C4.62751 17.7671 7.09304 18.3215 9.5584 18.3501C12.0239 18.3215 14.4895 17.7671 16.955 16.6871C18.0264 14.2214 18.5101 11.8034 18.4722 9.44265C18.4437 7.06294 17.9031 4.73091 16.9454 2.43706C14.5842 1.24254 12.1472 0.649858 9.6153 0.649858C9.59645 0.649858 9.57742 0.649858 9.5584 0.649858Z"
        fill="#003399" />
    <path fill-rule="evenodd" clip-rule="evenodd"
        d="M9.72898 14.8043C9.59632 12.9788 9.68168 11.0769 9.14109 9.33754C8.63856 7.71272 6.73247 6.78561 6.69459 4.99841C6.65671 3.60299 7.70925 1.98784 9.68168 1.98784C11.5307 1.97834 12.6782 3.33541 12.8108 4.84553C12.9721 6.59455 10.8669 7.77007 10.3169 9.43307C9.74801 11.1342 9.90912 13.0171 9.72898 14.8043Z"
        fill="#003399" />
    <path fill-rule="evenodd" clip-rule="evenodd"
        d="M10.4592 14.3648C10.3834 12.7783 10.3834 11.2587 10.8196 9.91098C11.3031 8.38186 12.3083 7.09164 13.8446 6.67101C14.8971 6.38443 16.4428 7.6268 16.1961 8.89801C15.9875 9.92065 14.9729 11.1248 13.3419 11.2587C12.5833 11.3256 12.2609 11.9373 11.7868 12.2909C13.9109 12.0806 15.2858 11.2395 16.2436 10.3603C16.3858 11.1057 16.4806 12.3577 15.9022 12.7878C14.7643 13.6001 13.7117 12.9407 12.3747 13.323C11.6255 13.5429 11.1608 14.0207 10.4592 14.3648Z"
        fill="#003399" />
    <path fill-rule="evenodd" clip-rule="evenodd"
        d="M9.00824 14.3648C9.0936 12.7783 9.08417 11.2587 8.65739 9.91098C8.17389 8.38186 7.16865 7.09164 5.6326 6.67101C4.57989 6.38443 3.02482 7.6268 3.28088 8.89801C3.48947 9.92065 4.50413 11.1248 6.13514 11.2587C6.88431 11.3256 7.21613 11.9373 7.69021 12.2909C5.55667 12.0806 4.19116 11.2395 3.2334 10.3603C3.09115 11.1057 2.99636 12.3577 3.57483 12.7878C4.71272 13.6001 5.76526 12.9407 7.10232 13.323C7.85149 13.5429 8.30655 14.0207 9.00824 14.3648Z"
        fill="#003399" />
    <path fill-rule="evenodd" clip-rule="evenodd"
        d="M14.0627 16.7256V16.4676L14.2524 16.4197L14.0627 16.133V15.6551L14.916 16.8498L14.6127 16.9264L14.4041 16.6299L14.0627 16.7256ZM14.0627 15.6551V16.133L13.93 15.9419L13.8731 16.5152L14.0627 16.4676V16.7256L13.8446 16.7733L13.8066 17.1269L13.5032 17.2034L13.7024 15.6455L14.0058 15.5691L14.0627 15.6551ZM11.2369 17.557V17.3086H11.3032C11.4076 17.299 11.4739 17.2895 11.5023 17.28C11.5402 17.2703 11.5783 17.2416 11.5971 17.2129C11.6256 17.1748 11.6352 17.1366 11.6352 17.0887C11.6256 17.0409 11.6162 17.0027 11.5877 16.974C11.5687 16.9454 11.5308 16.9264 11.4929 16.9167C11.4549 16.9072 11.3697 16.9072 11.2369 16.9167V16.6683C11.3128 16.6683 11.3601 16.6586 11.3791 16.6586C11.4266 16.6491 11.4645 16.6204 11.4929 16.5918C11.5214 16.5631 11.5308 16.5249 11.5214 16.4771C11.5214 16.4292 11.5023 16.391 11.4739 16.3719C11.4549 16.3434 11.417 16.3242 11.3601 16.3242C11.3412 16.3242 11.3032 16.3242 11.2369 16.3337V16.0853C11.3412 16.0756 11.417 16.0756 11.4645 16.0853C11.5214 16.0853 11.5783 16.1043 11.6256 16.133C11.6731 16.1521 11.7109 16.1903 11.749 16.2382C11.7774 16.286 11.7963 16.3434 11.8059 16.4102C11.8153 16.4771 11.7963 16.5439 11.7678 16.6013C11.7394 16.6586 11.6921 16.7065 11.6256 16.7446C11.7205 16.7638 11.7963 16.802 11.8438 16.8593C11.9007 16.9167 11.9291 16.9835 11.9386 17.0696C11.9386 17.1366 11.9291 17.2034 11.9101 17.2703C11.8816 17.3373 11.8438 17.385 11.7963 17.4328C11.7394 17.471 11.6825 17.4997 11.6067 17.5189C11.5593 17.5284 11.436 17.5379 11.2559 17.557H11.2369ZM13.0291 16.7543L13.3231 16.7925C13.3041 16.955 13.2566 17.0887 13.1712 17.1843C13.0859 17.2703 12.9626 17.3373 12.811 17.3658C12.6214 17.3945 12.4507 17.3563 12.3084 17.2513C12.1567 17.1366 12.0714 16.974 12.0239 16.7446C11.986 16.5057 12.0145 16.305 12.1187 16.1521C12.2136 15.9993 12.3653 15.9037 12.5645 15.8654C12.7446 15.8367 12.8869 15.8654 13.0195 15.9514C13.0955 15.9993 13.1618 16.0756 13.2093 16.1903L12.9342 16.305C12.9057 16.2382 12.8584 16.1808 12.8015 16.1521C12.735 16.114 12.6687 16.1043 12.5929 16.114C12.4886 16.133 12.4126 16.1903 12.3557 16.2763C12.299 16.3719 12.2894 16.4962 12.3178 16.6683C12.3557 16.8498 12.4126 16.974 12.4886 17.0409C12.5645 17.1079 12.6593 17.1366 12.7635 17.1174C12.8394 17.0982 12.8963 17.0601 12.9438 17.0027C12.9911 16.9454 13.0195 16.8593 13.0291 16.7543ZM11.2369 16.0853V16.3337C11.199 16.3337 11.1609 16.3434 11.1136 16.3434L10.9429 16.3624L10.9714 16.697L11.1705 16.6778C11.1894 16.6778 11.2178 16.6778 11.2369 16.6683V16.9167C11.2369 16.9167 11.2369 16.9167 11.2274 16.9167L10.9998 16.9359L11.0283 17.3276L11.2369 17.3086V17.557L10.7628 17.6049L10.6299 16.1426L11.2084 16.0948C11.2178 16.0853 11.2274 16.0853 11.2369 16.0853ZM9.40669 17.0506V16.802C9.47302 16.802 9.51107 16.7925 9.53953 16.7828C9.5774 16.7733 9.60585 16.7446 9.63431 16.716C9.65333 16.6778 9.66276 16.6396 9.66276 16.6013C9.67218 16.5439 9.65333 16.5057 9.62488 16.4676C9.59643 16.4292 9.55838 16.4102 9.51107 16.4005C9.48262 16.4005 9.45417 16.391 9.40669 16.391V16.1426C9.54895 16.1426 9.63431 16.1521 9.68178 16.1711C9.76714 16.1903 9.83347 16.2382 9.89037 16.3147C9.94728 16.391 9.97573 16.4866 9.96613 16.6013C9.96613 16.6873 9.94728 16.7638 9.91882 16.8307C9.88077 16.888 9.84289 16.9359 9.79559 16.974C9.73869 17.0027 9.69121 17.0219 9.63431 17.0409C9.5774 17.0506 9.50147 17.0506 9.40669 17.0506ZM9.40669 16.1426V16.391C9.37824 16.391 9.34036 16.391 9.29289 16.391L9.15063 16.3815V16.802H9.30249C9.34036 16.802 9.37824 16.802 9.40669 16.802V17.0506C9.38784 17.0506 9.35939 17.0506 9.33094 17.0506H9.1412L9.13177 17.6049L8.83783 17.5952L8.86628 16.133L9.33094 16.1426C9.35939 16.1426 9.38784 16.1426 9.40669 16.1426ZM6.66625 16.9072V16.4581C6.7516 16.4771 6.8085 16.4771 6.83696 16.4771C6.87483 16.4676 6.90329 16.4581 6.93174 16.4292C6.95076 16.4005 6.96962 16.3719 6.97922 16.3242C6.98864 16.2763 6.97922 16.2382 6.96019 16.1998C6.94116 16.1616 6.90329 16.1426 6.85598 16.1235C6.83696 16.114 6.77063 16.1043 6.66625 16.0853V15.8367L6.78948 15.8559C6.94116 15.8846 7.04554 15.9132 7.11187 15.9514C7.17838 15.9896 7.22568 16.0469 7.25413 16.1235C7.28258 16.1903 7.29201 16.2763 7.27316 16.3624C7.25413 16.4676 7.20683 16.5536 7.1309 16.6109C7.06457 16.6683 6.96019 16.697 6.82753 16.697C6.88443 16.7446 6.93174 16.7925 6.96019 16.8402C6.99807 16.8977 7.03612 16.9835 7.08342 17.1079L7.20683 17.4232L6.86541 17.3563L6.71372 17.0027C6.6947 16.974 6.68527 16.9359 6.66625 16.9072ZM7.50077 15.9993L7.78529 16.0279L7.71879 16.8212C7.70936 16.9454 7.70936 17.0314 7.70936 17.0601C7.71879 17.1269 7.74724 17.1748 7.78529 17.2129C7.83259 17.2608 7.8895 17.28 7.97485 17.2895C8.06021 17.299 8.12654 17.28 8.16459 17.2513C8.21189 17.2226 8.24034 17.1843 8.25937 17.1366C8.2688 17.0887 8.27822 17.0027 8.28782 16.888L8.35415 16.0756L8.6481 16.1043L8.58177 16.869C8.57217 17.0506 8.55331 17.1748 8.52486 17.2416C8.50584 17.3086 8.46796 17.3755 8.43008 17.4137C8.3826 17.4615 8.31627 17.4997 8.24034 17.5189C8.17402 17.5475 8.07923 17.5475 7.96543 17.5379C7.82317 17.5284 7.71879 17.4997 7.65246 17.4615C7.58613 17.4232 7.52923 17.3755 7.49117 17.3276C7.4533 17.2703 7.43427 17.2129 7.42484 17.1556C7.41542 17.0696 7.41542 16.9454 7.42484 16.7828L7.50077 15.9993ZM5.19653 16.4292L5.25343 16.1903L5.86977 16.3529L5.71791 16.9167C5.64216 16.9645 5.54738 16.9932 5.41454 17.0027C5.29131 17.0122 5.1775 17.0027 5.0637 16.974C4.91201 16.9359 4.78878 16.869 4.70342 16.7828C4.60847 16.6873 4.55156 16.5726 4.52311 16.4484C4.50426 16.3147 4.50426 16.1808 4.54214 16.0469C4.58002 15.9037 4.64652 15.7793 4.7413 15.6743C4.82666 15.5786 4.94046 15.5213 5.07312 15.4928C5.1775 15.4641 5.30074 15.4736 5.43357 15.5118C5.60428 15.5596 5.73694 15.6265 5.81287 15.7317C5.88862 15.8272 5.92667 15.9514 5.91707 16.0853L5.62313 16.0661C5.62313 15.9896 5.60428 15.9227 5.5568 15.8654C5.50932 15.8175 5.45242 15.7698 5.36707 15.7507C5.24383 15.722 5.13963 15.7317 5.04467 15.7888C4.94989 15.8462 4.88356 15.9611 4.83608 16.114C4.78878 16.286 4.7982 16.4197 4.84568 16.5249C4.90259 16.6299 4.98777 16.697 5.10157 16.7256C5.16808 16.7446 5.22498 16.7446 5.29131 16.7446C5.35764 16.7351 5.41454 16.716 5.47145 16.697L5.51892 16.5152L5.19653 16.4292ZM6.66625 15.8367L6.17314 15.7507L5.92667 17.1939L6.21102 17.2416L6.3154 16.6396L6.38173 16.6491C6.44823 16.6586 6.49554 16.6778 6.52399 16.6873C6.55244 16.7065 6.57146 16.7351 6.59992 16.7638C6.60934 16.7925 6.63779 16.8402 6.66625 16.9072V16.4581C6.63779 16.4581 6.60934 16.4484 6.57147 16.4484L6.36288 16.4102L6.41978 16.0469L6.64722 16.0853C6.65682 16.0853 6.66625 16.0853 6.66625 16.0853V15.8367Z"
        fill="#003399" />
</svg>