<svg xmlns="http://www.w3.org/2000/svg" width="32" height="32"
    viewBox="0 0 19 19" fill="none">
    <g clip-path="url(#clip0_138_484)">
        <path fill-rule="evenodd" clip-rule="evenodd"
            d="M0 0.000976562H5.94621C5.63564 0.530125 5.40047 1.71987 6.00173 4.39233C6.53608 6.76772 8.08167 9.24566 9.69393 11.2043L7.66805 12.8561L0 3.28901V0.000976562ZM8.68341 0.000976562H19.1512V2.51985C18.3417 2.04992 16.865 1.59588 14.697 2.45701C11.1988 3.84657 10.8991 7.91557 10.8991 7.91557C8.96392 5.59435 7.69109 1.78872 8.68341 0.000976562ZM19.1512 5.86085V13.3578C16.7726 14.254 13.4363 11.9232 12.5982 9.15611C11.383 5.14513 14.247 3.69755 16.2959 4.09453C17.8272 4.39137 18.7163 5.29751 19.1512 5.86085ZM19.1512 14.5884V19.0183H12.7356L14.0218 17.9699C13.1827 18.0715 11.5338 17.6795 10.7311 16.6778L8.47273 13.8602L10.5374 12.1772C11.8061 13.5658 13.0145 14.5634 13.6974 14.8626C15.1603 15.5035 16.808 15.8128 19.1512 14.5884ZM9.15303 19.0183H2.14467L6.51135 15.4587C6.86871 15.9046 7.21371 16.3355 7.5415 16.7445C8.18446 17.5469 8.72463 18.3394 9.15303 19.0183ZM0.107888 19.0183H0V7.3349C1.66778 9.41563 3.79815 12.0736 5.70667 14.4548L0.107888 19.0183Z"
            fill="#EC6722" />
    </g>
    <defs>
        <clipPath id="clip0_138_484">
            <rect width="19" height="19" fill="white" />
        </clipPath>
    </defs>
</svg>