<svg xmlns="http://www.w3.org/2000/svg" width="32" height="32"
    viewBox="0 0 19 19" fill="none">
    <path fill-rule="evenodd" clip-rule="evenodd"
        d="M0 2.7245C0 1.21972 1.21975 0 2.72433 0H16.2757C17.7805 0 19 1.21972 19 2.7245V16.2757C19 17.7803 17.7805 19 16.2757 19H2.72433C1.21975 19 0 17.7803 0 16.2757V2.7245ZM3.31453 17.1384C2.51225 17.1384 1.86167 16.4878 1.86167 15.6853V3.31914C1.86167 2.51664 2.51225 1.86632 3.31453 1.86632H4.97204C7.1559 1.86632 8.77308 4.07908 7.37639 5.47796L3.32393 9.53576L6.80178 13.1791C8.488 14.9454 6.51349 17.1384 4.64242 17.1384H3.31453ZM8.57362 1.86632H9.97426C12.1581 1.86632 13.7756 4.07908 12.3786 5.47796L8.32616 9.53576L12.051 13.3356L15.7758 17.1354L7.91413 17.1339C9.60357 17.1339 10.6699 14.2921 8.86192 12.41L6.10121 9.53576L9.31527 6.2228C11.0458 4.43864 9.78966 2.14347 8.57362 1.86632ZM17.1366 15.6853L11.1037 9.53576L14.3175 6.2228C16.0483 4.43864 14.7919 2.14347 13.5761 1.86632H15.6808C16.4833 1.86632 17.1339 2.51664 17.1339 3.31914L17.1366 15.6853Z"
        fill="#1F4396" />
</svg>