<svg xmlns="http://www.w3.org/2000/svg" width="32" height="32" viewBox="0 0 19 19"
    fill="none">
    <g clip-path="url(#clip0_138_257)">
        <path
            d="M15.5 12.825C14.8 12.825 14.3 12.1125 14.3 11.4C14.3 10.5688 14.9 9.975 15.5 9.975C16.1 9.975 16.7 10.6875 16.7 11.4C16.8 12.1125 16.2 12.825 15.5 12.825ZM15.5 7.125C13.6 7.125 12 9.025 12 11.2812C12 14.3687 15.5 19 15.5 19C15.5 19 19 14.3687 19 11.2812C19 9.025 17.4 7.125 15.5 7.125ZM11.9 6.29375C11.6 4.75 10.4 3.5625 9 3.5625C7.3 3.5625 6 5.10625 6 7.125C6 9.14375 7.3 10.6875 9 10.6875C9.4 10.6875 9.7 10.5688 10 10.45C10.2 8.7875 10.9 7.3625 11.9 6.29375ZM10 11.875H4C4 11.2451 3.78929 10.641 3.41421 10.1956C3.03914 9.75022 2.53043 9.5 2 9.5V4.75C2.53043 4.75 3.03914 4.49978 3.41421 4.05438C3.78929 3.60898 4 3.00489 4 2.375H14C14 3.00489 14.2107 3.60898 14.5858 4.05438C14.9609 4.49978 15.4696 4.75 16 4.75C16 4.75 17 4.75 18 5.4625V0H0V14.25H10.5C10.3 13.4187 10.1 12.7063 10 11.875Z"
            fill="#57C487" />
    </g>
    <defs>
        <clipPath id="clip0_138_257">
            <rect width="32" height="32" fill="white" />
        </clipPath>
    </defs>
</svg>