<svg xmlns="http://www.w3.org/2000/svg" width="32" height="32" viewBox="0 0 19 19"
    fill="none">
    <path fill-rule="evenodd" clip-rule="evenodd"
        d="M8.74813 0.0344702C5.54914 0.331617 2.95667 1.99521 1.38216 4.56309C0.358997 6.23162 -0.121953 8.20837 0.0263623 10.237C0.389269 15.2 4.73179 19.4019 10.29 18.9693C15.2771 18.5811 19.3917 14.1749 18.9702 8.75552C18.8158 6.77137 18.1137 5.1361 16.9882 3.65952C16.4786 2.99098 16.3781 2.98007 15.846 2.43275C15.1861 1.75384 13.7905 0.974466 12.8999 0.629643C11.7057 0.167122 10.1851 -0.099061 8.74813 0.0344702Z"
        fill="#108DE8" />
    <path fill-rule="evenodd" clip-rule="evenodd"
        d="M3.99838 6.73118C3.87711 7.07512 3.9493 10.8993 3.9493 11.6087C3.9493 12.3761 3.79508 12.6157 5.01742 13.0263C8.25385 14.1134 11.4586 10.4275 14.6767 12.2512C14.8259 12.3356 15.0076 12.5089 15.0502 12.229L15.0515 7.30946C15.0516 6.78026 15.0998 6.61454 14.7425 6.37017C11.8627 4.39975 8.74465 7.77005 5.82259 7.39197C4.74121 7.25211 4.2934 6.71024 3.99838 6.73118Z"
        fill="white" />
</svg>