<svg xmlns="http://www.w3.org/2000/svg" width="32" height="32" viewBox="0 0 19 19"
    fill="none">
    <path
        d="M9.49987 0C14.7467 0 19 4.25323 19 9.49986C19 14.7468 14.7467 19 9.49987 19C4.25333 19 0 14.7468 0 9.49986C0 4.25323 4.25333 0 9.49987 0Z"
        fill="#00AED6" />
    <path fill-rule="evenodd" clip-rule="evenodd"
        d="M15.0415 9.20681C14.9693 7.99789 13.94 7.07084 12.73 7.12479H6.72932C6.51044 7.12479 6.33326 6.94752 6.33326 6.72897C6.33326 6.51042 6.51044 6.33315 6.72932 6.33315H12.8091C12.7736 5.51372 12.2141 4.81044 11.4236 4.59162C9.65129 4.2748 7.83675 4.2748 6.06417 4.59162C5.05689 4.83907 4.30328 5.67722 4.16409 6.7053C3.88703 8.5685 3.88703 10.4628 4.16409 12.326C4.37633 13.4138 5.24071 14.2558 6.33326 14.44C8.53085 14.7169 10.7542 14.7169 12.9515 14.44C13.9307 14.2415 14.6715 13.4369 14.7884 12.4449C14.9895 11.3777 15.0742 10.2921 15.0415 9.20681ZM13.0626 10.5368V10.8853C13.0626 11.1039 12.8854 11.2811 12.6668 11.2811C12.4482 11.2811 12.271 11.1039 12.271 10.8853V10.5368C12.1429 10.4254 12.0707 10.2632 12.0728 10.0937C12.0728 9.76558 12.3387 9.49968 12.6668 9.49968C12.9946 9.49968 13.2605 9.76558 13.2605 10.0937C13.2586 10.2624 13.1869 10.4229 13.0626 10.5368Z"
        fill="white" />
</svg>