<svg width="32" height="32" viewBox="0 0 19 19" fill="none" xmlns="http://www.w3.org/2000/svg">
<g clip-path="url(#clip0_138_215)">
<path d="M0.635081 18.6288C0.273805 18.4246 -0.0106459 18.2457 0.0026447 18.2313C0.0488375 18.1812 1.7771 17.781 2.98394 17.5409C5.59554 17.0214 8.70051 16.6056 11.7933 16.3613C13.0669 16.2606 17.6749 16.2571 18.4739 16.3563L18.9979 16.4214L18.4073 16.4313C17.3588 16.449 14.9544 16.6316 13.0705 16.8365C9.50459 17.2247 5.54011 17.94 2.67226 18.713C2.08651 18.8708 1.53625 18.9999 1.44953 18.9999C1.36266 18.9999 0.996195 18.833 0.635081 18.6288ZM5.6205 14.7338C5.56701 14.5732 5.79117 14.5013 5.88891 14.4555C6.32798 14.2513 6.6369 13.9184 6.74031 13.5381C6.78975 13.3562 6.94048 12.3276 7.07517 11.2526C7.20986 10.1776 7.33077 9.34619 7.34406 9.29729C7.35378 9.26123 7.38037 9.13301 7.52251 9.11912C7.88524 9.11525 8.15462 9.12035 8.52627 9.12035C8.73163 9.09889 8.69127 9.34284 8.67522 9.49903C8.65901 9.69638 8.61007 10.0772 8.55301 10.5419C8.48348 11.1087 8.37959 11.956 8.32221 12.4246C8.19304 13.4778 8.1214 13.8019 7.89821 14.3445C7.6324 14.99 7.22623 15.365 6.4899 15.632C6.34111 15.6825 5.91484 15.8399 5.86832 15.7001C5.77205 15.3652 5.70381 15.0741 5.6205 14.7338ZM14.0764 14.3806C13.5856 14.1658 13.6088 13.3355 14.1235 12.995C14.4492 12.7793 14.9069 12.8161 15.1421 13.0713C15.7217 13.7001 14.8694 14.728 14.0764 14.3806ZM10.3675 13.8848C8.92483 13.6174 8.93439 11.7507 9.25758 10.6842C9.66229 9.44943 10.6485 9.09062 11.4591 9.05931C12.1432 9.03399 13.0914 9.17206 13.3295 9.33159C13.3953 9.37573 13.3644 9.80367 13.1807 11.3905C13.0533 12.4921 12.9138 13.4396 12.8708 13.4957C12.6425 13.7944 11.1121 14.0322 10.3675 13.8848ZM11.6259 12.4075C11.7808 11.7822 11.8462 11.2178 11.957 10.5582C11.9432 10.3308 11.5896 10.3292 11.4996 10.3287C11.0312 10.3287 10.7545 10.614 10.608 11.2484C10.4069 12.1183 10.6168 12.6031 11.1949 12.6031C11.3776 12.5848 11.5684 12.5957 11.6259 12.4075ZM1.08226 13.381C1.4766 12.3356 3.06061 8.59233 3.44069 7.81703C3.51249 7.6239 3.7018 7.58573 3.8313 7.57219C4.20392 7.55372 4.52597 7.55865 4.85305 7.56129C5.19002 7.56445 5.19504 7.69267 5.23848 7.96459C5.29148 8.23564 5.9492 12.4967 6.09799 13.5195C6.11695 13.6894 6.15536 13.7421 5.95163 13.7425C5.66929 13.7434 4.98969 13.7833 4.75921 13.7643C4.68562 13.7539 4.63749 13.7015 4.62614 13.6426C4.60507 13.5328 4.58124 13.3444 4.56504 13.1482L4.52306 12.6386H3.67684H2.83045L2.64552 13.1286C2.57955 13.3029 2.50775 13.4748 2.4541 13.5888C2.4165 13.6934 2.36058 13.7416 2.27695 13.7615C2.06965 13.7595 1.33543 13.7891 1.05941 13.7627C0.922935 13.6946 1.04644 13.4762 1.08226 13.381ZM4.37394 11.2199C4.34996 10.9446 4.18804 9.52471 4.14995 9.31505C4.1399 9.29254 4.1352 9.29975 4.12499 9.31312C4.02498 9.47599 3.48396 10.917 3.3919 11.2517C3.38072 11.2978 3.40843 11.3147 3.44863 11.311C3.58591 11.3008 4.14687 11.2894 4.31738 11.2823C4.366 11.2783 4.37086 11.2598 4.37394 11.2199ZM14.1414 11.9101C14.1633 11.7245 14.2112 11.2208 14.248 10.7907C14.2847 10.3607 14.3435 9.68899 14.3787 9.29817C14.4052 9.00145 14.4287 8.71352 14.4388 8.56191C14.4594 8.42612 14.6108 8.41012 14.7101 8.40906C15.0417 8.41293 15.3539 8.39147 15.652 8.42137C15.793 8.43703 15.8518 8.4708 15.8523 8.56173C15.7179 9.31013 15.2348 11.8923 15.1976 12.0522C15.1656 12.1901 15.1526 12.2307 14.9586 12.2427C14.721 12.2385 14.5229 12.252 14.2817 12.2508C14.1435 12.2488 14.1065 12.2047 14.1414 11.9101ZM7.452 8.074C7.452 7.61775 7.72252 7.27002 8.0611 7.12368C8.35382 7.01252 8.68187 7.01287 8.85659 7.22939C9.16649 7.62038 8.96308 8.19817 8.60099 8.49911C8.13712 8.84544 7.45962 8.6407 7.452 8.074ZM15.7627 7.11242C15.6614 6.86812 15.3364 6.09738 15.0404 5.39964C14.7445 4.70189 14.518 4.08664 14.5372 4.03264C14.5563 3.97865 14.8861 3.53401 15.2701 3.04469L15.8951 2.2481C15.9361 2.19445 15.9829 2.12885 16.0397 2.12797C16.4163 2.13008 16.8066 2.15452 17.1661 2.15066C17.4339 2.14819 17.5686 2.12937 17.37 2.348C17.2428 2.51896 16.9922 2.83169 16.7055 3.17484C16.2912 3.67085 15.9523 4.08981 15.9523 4.10617C15.9523 4.12235 16.263 4.86301 16.6426 5.75211C16.941 6.45056 17.1873 7.07531 17.2705 7.33615C17.3058 7.4248 17.2747 7.50061 17.1988 7.52136C17.0984 7.54669 16.9176 7.55671 16.6066 7.55671H16.1408C16.027 7.56955 15.9432 7.54792 15.8995 7.44221L15.7627 7.11242ZM1.8207 6.5925C1.40156 6.36578 1.20333 6.07874 1.16719 5.64641C1.14563 5.38715 1.53625 1.90301 1.70935 0.795095C1.75165 0.534959 1.76997 0.520184 1.99979 0.520184H2.452C2.68961 0.520184 2.90582 0.515787 3.04181 0.52423C3.22771 0.527044 3.19368 0.65421 3.17941 0.806352C3.14748 1.14617 3.04797 1.88208 2.923 2.82975C2.70128 4.51106 2.64487 5.10432 2.69787 5.19578C2.75995 5.30255 2.91765 5.32031 3.9621 5.3372L4.89633 5.35232C5.11886 5.33896 5.16489 5.39823 5.14301 5.6151C5.08855 5.97391 5.05857 6.2599 5.00443 6.58142C4.96716 6.78211 4.84787 6.72969 4.66196 6.74201L3.5697 6.75854C2.16917 6.77753 2.16171 6.77683 1.8207 6.5925ZM12.594 6.7216C12.5799 6.69223 12.619 6.28452 12.6809 5.81526C12.7428 5.34617 12.872 4.33869 12.9681 3.57639C13.241 1.41228 13.3306 0.76027 13.3686 0.510862C13.4088 0.219769 13.4089 0.235951 13.6718 0.235951H14.0885C14.2513 0.235951 14.3782 0.233489 14.4762 0.237006C14.8505 0.250198 14.803 0.215196 14.7085 0.844168C14.6727 1.08197 14.5539 2.12832 14.4443 3.00775C14.1683 5.22287 13.9872 6.58089 13.9542 6.68607C13.923 6.78457 12.6405 6.81799 12.594 6.7216ZM5.47285 6.5531C5.64676 4.97012 5.81273 3.77321 6.00576 2.30033C6.02035 2.12392 6.18 2.10352 6.36656 2.10334C6.57888 2.10299 6.79461 2.1 6.99672 2.10739C7.38831 2.10879 7.49123 2.16561 7.45055 2.44984C7.27712 3.83266 7.06269 5.06686 6.83772 6.47272C6.79558 6.71087 6.7442 6.70384 6.53463 6.70384C6.29054 6.70472 5.85746 6.71351 5.63622 6.707C5.50672 6.68203 5.47738 6.6662 5.47285 6.5531ZM8.23615 3.00951C8.34361 2.39742 8.418 2.30192 8.57409 2.19093C8.76647 2.05409 10.1887 1.91145 10.6798 1.97969C10.7484 1.99042 10.8135 2.00379 10.8758 2.0198C12.3142 2.39056 12.0907 4.15823 11.9972 4.97153C11.8985 5.74842 11.8019 6.45584 11.7821 6.54396C11.7478 6.69698 11.7171 6.70384 11.0657 6.70384C10.8468 6.70384 10.7325 6.69557 10.608 6.68291C10.4067 6.66866 10.3881 6.61959 10.4082 6.46076C10.4814 5.81174 10.5803 5.25207 10.6541 4.64579C10.7533 3.81841 10.7268 3.0016 9.78077 3.17713C9.61869 3.22181 9.57428 3.23588 9.55208 3.41141C9.43392 4.22858 9.33019 5.07284 9.22224 5.87224C9.19858 6.06308 9.16551 6.26236 9.13148 6.43913C9.12273 6.48416 9.11786 6.52443 9.11041 6.55416C9.10068 6.58951 9.07832 6.6261 9.05692 6.58986C8.90489 6.28945 8.18963 6.33958 7.89124 6.55996C7.74148 6.67288 7.71068 6.73374 7.77179 6.38935C7.78249 6.31636 7.79302 6.24337 7.80323 6.17055C7.95137 5.11593 8.05121 4.07855 8.23615 3.00951ZM6.1941 1.19805C6.03429 0.606545 6.51 0.0220726 7.04275 0.0018456C7.76466 -0.0505687 7.96402 1.02691 7.22542 1.51553C6.79769 1.728 6.34808 1.68297 6.1941 1.19805Z" fill="#E9232A"/>
</g>
<defs>
<clipPath id="clip0_138_215">
<rect width="19" height="19" fill="white"/>
</clipPath>
</defs>
</svg>
