<svg xmlns="http://www.w3.org/2000/svg" width="32" height="21"
    viewBox="0 0 19 8" fill="none">
    <path fill-rule="evenodd" clip-rule="evenodd"
        d="M0 5.37947C0.331594 6.11731 0.948436 8.11815 1.6788 7.99452C3.38979 7.70496 4.36424 4.01973 6.47671 4.28272C7.34447 4.39078 7.75312 7.2898 8.61364 7.53952C9.96998 7.9332 11.2694 3.77936 13.48 4.01776C14.3888 4.11564 14.7644 7.15683 15.6702 7.33244C16.5148 7.49607 17.8374 5.11156 19 3.87544C18.7041 2.88248 18.154 1.33188 17.5684 1.25351C16.4157 1.09905 15.4936 4.03219 14.4797 3.52013C13.8896 3.22221 13.2175 -0.00638507 12.2455 9.48598e-06C10.446 0.0118148 9.20422 3.5603 7.61334 3.84068C6.71059 3.99972 6.27659 0.000501376 5.0676 0.368106C3.41309 0.871309 1.72227 3.58654 0 5.37947Z"
        fill="url(#paint0_linear_138_501)" />
    <defs>
        <linearGradient id="paint0_linear_138_501" x1="1.19944" y1="10.8981"
            x2="19.8393" y2="7.02498" gradientUnits="userSpaceOnUse">
            <stop stop-color="#F6AD02" />
            <stop offset="0.2" stop-color="#FFF000" />
            <stop offset="0.411765" stop-color="#F6AD02" />
            <stop offset="0.658824" stop-color="#FFF000" />
            <stop offset="0.788235" stop-color="#F6AD02" />
            <stop offset="1" stop-color="#FFF000" />
        </linearGradient>
    </defs>
</svg>