<svg xmlns="http://www.w3.org/2000/svg" width="32" height="32" viewBox="0 0 19 19"
    fill="none">
    <g clip-path="url(#clip0_138_244)">
        <path fill-rule="evenodd" clip-rule="evenodd"
            d="M2.46605 3.6876H17.415C18.4094 3.6876 19.2231 4.5791 19.2231 5.66844V17.1285C19.2231 18.2179 18.4094 19.1094 17.415 19.1094H2.03129C1.03692 19.1094 0.223145 18.2179 0.223145 17.1285V2.97195C0.223145 2.45659 0.611082 2.09999 1.07705 2.03649L14.8622 0.109375C15.3326 0.109375 15.7161 0.52948 15.7161 1.04484V2.6471H1.60322C1.60322 3.31878 1.78604 3.6876 2.46382 3.6876H2.46605ZM10.8491 16.2444C9.5916 16.5081 7.9752 16.049 7.09677 15.0133C6.69991 14.5468 7.33978 13.841 7.73887 14.3124C8.32969 15.0109 9.38426 15.3358 10.2449 15.3138C11.3418 15.2869 12.3161 14.1951 11.694 12.9739C10.8312 11.2837 8.70871 11.7575 7.61624 10.4288C6.73335 9.35658 7.1525 7.67127 8.18923 6.92632C9.27055 6.14717 11.1367 6.17648 12.0262 7.29513C12.4097 7.77386 11.7676 8.47973 11.3841 7.99612C10.6662 7.09485 8.96957 7.21697 8.32077 8.14511C7.39998 9.47138 8.77783 10.1846 9.74098 10.5045C11.0653 10.9442 12.5346 11.7478 12.7754 13.4111C12.9671 14.7496 12.0218 15.9977 10.8491 16.2444Z"
            fill="#EE4E2C" />
        <path fill-rule="evenodd" clip-rule="evenodd"
            d="M10.7287 16.1503C9.48544 16.4125 7.88734 15.956 7.01885 14.9264C6.62649 14.4626 7.25912 13.7609 7.65368 14.2295C8.23782 14.924 9.28044 15.247 10.1313 15.2251C11.2158 15.1984 12.1791 14.113 11.5641 12.8989C10.7132 11.2185 8.61254 11.6896 7.53245 10.371C6.65955 9.30505 7.07396 7.62956 8.09895 6.88651C9.16802 6.1119 11.013 6.14104 11.8925 7.25318C12.2717 7.72912 11.6368 8.43088 11.2577 7.95009C10.5479 7.05406 8.87045 7.17548 8.2312 8.09821C7.32084 9.41675 8.68308 10.1258 9.63533 10.4439C10.9447 10.881 12.3973 11.6799 12.6354 13.3335C12.8249 14.6642 11.8903 15.905 10.7309 16.1503H10.7287Z"
            fill="#FEFEFE" />
    </g>
    <defs>
        <clipPath id="clip0_138_244">
            <rect width="19" height="19" fill="white" />
        </clipPath>
    </defs>
</svg>