<svg xmlns="http://www.w3.org/2000/svg" width="20" height="20" viewBox="0 0 20 20" fill="none">
  <path d="M10.0001 18.2441C5.39758 18.2441 1.66675 14.5132 1.66675 9.91073C1.66675 5.30906 5.39758 1.57739 10.0001 1.57739C14.6026 1.57739 18.3334 5.30906 18.3334 9.91073C18.3334 14.5132 14.6026 18.2441 10.0001 18.2441ZM10.0001 5.74406C9.77907 5.74406 9.56711 5.83186 9.41083 5.98814C9.25455 6.14442 9.16675 6.35638 9.16675 6.57739V10.7441C9.16675 10.9651 9.25455 11.177 9.41083 11.3333C9.56711 11.4896 9.77907 11.5774 10.0001 11.5774C10.2211 11.5774 10.4331 11.4896 10.5893 11.3333C10.7456 11.177 10.8334 10.9651 10.8334 10.7441V6.57739C10.8334 6.35638 10.7456 6.14442 10.5893 5.98814C10.4331 5.83186 10.2211 5.74406 10.0001 5.74406ZM10.0001 14.0774C10.2211 14.0774 10.4331 13.9896 10.5893 13.8333C10.7456 13.677 10.8334 13.4651 10.8334 13.2441C10.8334 13.023 10.7456 12.8111 10.5893 12.6548C10.4331 12.4985 10.2211 12.4107 10.0001 12.4107C9.77907 12.4107 9.56711 12.4985 9.41083 12.6548C9.25455 12.8111 9.16675 13.023 9.16675 13.2441C9.16675 13.4651 9.25455 13.677 9.41083 13.8333C9.56711 13.9896 9.77907 14.0774 10.0001 14.0774Z" fill="#FF6A69"/>
</svg>