<svg width="4" height="4" viewBox="0 0 21 17" fill="none" xmlns="http://www.w3.org/2000/svg">
<path d="M17.85 2.125H16.1847L15.1347 1.0625C14.5267 0.447313 13.4599 0 12.6 0H8.4C7.54005 0 6.47325 0.447313 5.8653 1.0625L4.8153 2.125H3.15C1.4133 2.125 0 3.55512 0 5.3125V13.8125C0 15.5699 1.4133 17 3.15 17H17.85C19.5867 17 21 15.5699 21 13.8125V5.3125C21 3.55512 19.5867 2.125 17.85 2.125ZM10.5 12.75C9.52519 12.7499 8.59036 12.3579 7.90117 11.6603C7.21197 10.9627 6.82486 10.0166 6.825 9.03019C6.82514 8.04377 7.21251 7.09782 7.90191 6.40041C8.5913 5.70301 9.52624 5.3113 10.501 5.31144C11.4759 5.31158 12.4107 5.70357 13.0999 6.40117C13.7891 7.09877 14.1762 8.04484 14.1761 9.03125C14.1759 10.0177 13.7885 10.9636 13.0991 11.661C12.4097 12.3584 11.4748 12.7501 10.5 12.75ZM16.8 7.75519C16.6207 7.75519 16.4432 7.71946 16.2776 7.65005C16.112 7.58063 15.9616 7.47889 15.8348 7.35063C15.708 7.22237 15.6075 7.0701 15.5389 6.90252C15.4703 6.73494 15.435 6.55533 15.435 6.37394C15.435 6.19255 15.4703 6.01294 15.5389 5.84536C15.6075 5.67777 15.708 5.52551 15.8348 5.39725C15.9616 5.26899 16.112 5.16724 16.2776 5.09783C16.4432 5.02841 16.6207 4.99269 16.8 4.99269C17.162 4.99269 17.5092 5.13821 17.7652 5.39725C18.0212 5.65628 18.165 6.00761 18.165 6.37394C18.165 6.74027 18.0212 7.09159 17.7652 7.35063C17.5092 7.60966 17.162 7.75519 16.8 7.75519Z" fill="white"/>
</svg>
