<svg width="20" height="20" viewBox="0 0 20 20" fill="none" xmlns="http://www.w3.org/2000/svg">
<g id="jam:alert-f">
<path id="Vector" d="M10.0001 18.2442C5.39758 18.2442 1.66675 14.5133 1.66675 9.91085C1.66675 5.30918 5.39758 1.57751 10.0001 1.57751C14.6026 1.57751 18.3334 5.30918 18.3334 9.91085C18.3334 14.5133 14.6026 18.2442 10.0001 18.2442ZM10.0001 5.74418C9.77907 5.74418 9.56711 5.83198 9.41083 5.98826C9.25455 6.14454 9.16675 6.3565 9.16675 6.57751V10.7442C9.16675 10.9652 9.25455 11.1772 9.41083 11.3334C9.56711 11.4897 9.77907 11.5775 10.0001 11.5775C10.2211 11.5775 10.4331 11.4897 10.5893 11.3334C10.7456 11.1772 10.8334 10.9652 10.8334 10.7442V6.57751C10.8334 6.3565 10.7456 6.14454 10.5893 5.98826C10.4331 5.83198 10.2211 5.74418 10.0001 5.74418ZM10.0001 14.0775C10.2211 14.0775 10.4331 13.9897 10.5893 13.8334C10.7456 13.6772 10.8334 13.4652 10.8334 13.2442C10.8334 13.0232 10.7456 12.8112 10.5893 12.6549C10.4331 12.4986 10.2211 12.4108 10.0001 12.4108C9.77907 12.4108 9.56711 12.4986 9.41083 12.6549C9.25455 12.8112 9.16675 13.0232 9.16675 13.2442C9.16675 13.4652 9.25455 13.6772 9.41083 13.8334C9.56711 13.9897 9.77907 14.0775 10.0001 14.0775Z" fill="#FF6A69"/>
</g>
</svg>
