<svg width="38" height="38" viewBox="0 0 38 38" fill="none" xmlns="http://www.w3.org/2000/svg">
<circle cx="19" cy="19" r="17.5" fill="#949494" stroke="white" stroke-width="3"/>
<path d="M26.85 12.125H25.1847L24.1347 11.0625C23.5267 10.4473 22.4599 10 21.6 10H17.4C16.54 10 15.4732 10.4473 14.8653 11.0625L13.8153 12.125H12.15C10.4133 12.125 9 13.5551 9 15.3125V23.8125C9 25.5699 10.4133 27 12.15 27H26.85C28.5867 27 30 25.5699 30 23.8125V15.3125C30 13.5551 28.5867 12.125 26.85 12.125ZM19.5 22.75C18.5252 22.7499 17.5904 22.3579 16.9012 21.6603C16.212 20.9627 15.8249 20.0166 15.825 19.0302C15.8251 18.0438 16.2125 17.0978 16.9019 16.4004C17.5913 15.703 18.5262 15.3113 19.501 15.3114C20.4759 15.3116 21.4107 15.7036 22.0999 16.4012C22.7891 17.0988 23.1762 18.0448 23.1761 19.0312C23.1759 20.0177 22.7885 20.9636 22.0991 21.661C21.4097 22.3584 20.4748 22.7501 19.5 22.75ZM25.8 17.7552C25.6207 17.7552 25.4432 17.7195 25.2776 17.65C25.112 17.5806 24.9616 17.4789 24.8348 17.3506C24.708 17.2224 24.6075 17.0701 24.5389 16.9025C24.4703 16.7349 24.435 16.5553 24.435 16.3739C24.435 16.1925 24.4703 16.0129 24.5389 15.8454C24.6075 15.6778 24.708 15.5255 24.8348 15.3972C24.9616 15.269 25.112 15.1672 25.2776 15.0978C25.4432 15.0284 25.6207 14.9927 25.8 14.9927C26.162 14.9927 26.5092 15.1382 26.7652 15.3972C27.0212 15.6563 27.165 16.0076 27.165 16.3739C27.165 16.7403 27.0212 17.0916 26.7652 17.3506C26.5092 17.6097 26.162 17.7552 25.8 17.7552Z" fill="white"/>
</svg>
