<svg width="20" height="20" viewBox="0 0 20 20" fill="none" xmlns="http://www.w3.org/2000/svg">
<rect width="20" height="20" fill="#363636"/>
<g id="PENDAPATAN">
<rect width="1440" height="1024" transform="translate(-1274 -204)" fill="#ECECEC"/>
<g id="Group 1000002939">
<rect id="Rectangle 908" x="-15" y="-6" width="157" height="32" rx="5" fill="white"/>
<g id="material-symbols:download">
<path id="Vector" d="M9.99992 13.3333L5.83325 9.16658L6.99992 7.95825L9.16659 10.1249V3.33325H10.8333V10.1249L12.9999 7.95825L14.1666 9.16658L9.99992 13.3333ZM4.99992 16.6666C4.54159 16.6666 4.14909 16.5033 3.82242 16.1766C3.49575 15.8499 3.3327 15.4577 3.33325 14.9999V12.4999H4.99992V14.9999H14.9999V12.4999H16.6666V14.9999C16.6666 15.4583 16.5033 15.8508 16.1766 16.1774C15.8499 16.5041 15.4577 16.6671 14.9999 16.6666H4.99992Z" fill="#707070" fill-opacity="0.8"/>
</g>
</g>
</g>
</svg>
