<svg width="29" height="29" viewBox="0 0 29 29" fill="none" xmlns="http://www.w3.org/2000/svg">
<g clip-path="url(#clip0_1148_4507)">
<path d="M22.9583 22.9583H7.04167C6.48938 22.9583 6.04167 22.5105 6.04167 21.9583V10.6666C6.04167 10.1143 6.48938 9.66658 7.04167 9.66658H22.9583M19.3333 1.20825V2.62492C19.3333 3.1772 18.8856 3.62492 18.3333 3.62492H10.6667C10.1144 3.62492 9.66667 3.1772 9.66667 2.62492V2.20825C9.66667 1.65597 9.21895 1.20825 8.66667 1.20825H8.25C7.69772 1.20825 7.25 1.65597 7.25 2.20825V2.62492C7.25 3.1772 6.80228 3.62492 6.25 3.62492H6.04167C4.70042 3.62492 3.625 4.70034 3.625 6.04158V22.9583C3.625 23.5992 3.87961 24.2139 4.33283 24.6671C4.78604 25.1203 5.40073 25.3749 6.04167 25.3749H22.9583C23.5993 25.3749 24.214 25.1203 24.6672 24.6671C25.1204 24.2139 25.375 23.5992 25.375 22.9583V6.04158C25.375 5.40065 25.1204 4.78596 24.6672 4.33274C24.214 3.87953 23.5993 3.62492 22.9583 3.62492H22.75C22.1977 3.62492 21.75 3.1772 21.75 2.62492V1.20825M20.5417 15.4999C20.5417 14.9476 20.094 14.4999 19.5417 14.4999H15.5C14.9477 14.4999 14.5 14.9476 14.5 15.4999V19.5416C14.5 20.0939 14.9477 20.5416 15.5 20.5416H19.5417C20.094 20.5416 20.5417 20.0939 20.5417 19.5416V15.4999Z" fill="#C6C6C6"/>
</g>
<defs>
<clipPath id="clip0_1148_4507">
<rect width="29" height="29" fill="white"/>
</clipPath>
</defs>
</svg>
