<svg width="23" height="27" viewBox="0 0 23 27" fill="none" xmlns="http://www.w3.org/2000/svg">
<mask id="path-1-inside-1_1149_4106" fill="white">
<path d="M21.9264 18.332C21.8324 18.2187 21.7401 18.1054 21.6495 17.9961C20.4034 16.4889 19.6495 15.5793 19.6495 11.3125C19.6495 9.10355 19.121 7.29105 18.0794 5.93168C17.3114 4.92744 16.2731 4.16563 14.9047 3.60262C14.8871 3.59282 14.8714 3.57997 14.8583 3.56467C14.3661 1.91643 13.0191 0.8125 11.5 0.8125C9.98093 0.8125 8.63459 1.91643 8.14238 3.56297C8.12924 3.57771 8.11374 3.59015 8.0965 3.59979C4.9031 4.91441 3.35115 7.43662 3.35115 11.3108C3.35115 15.5793 2.5984 16.4889 1.35117 17.9944C1.26054 18.1038 1.16822 18.2148 1.0742 18.3303C0.831322 18.6232 0.677441 18.9796 0.630765 19.3572C0.584089 19.7348 0.646571 20.1179 0.810818 20.4611C1.16029 21.1975 1.90511 21.6546 2.75529 21.6546H20.251C21.0972 21.6546 21.837 21.198 22.1876 20.4651C22.3525 20.1218 22.4156 19.7384 22.3693 19.3603C22.323 18.9823 22.1693 18.6254 21.9264 18.332ZM11.5 26.1875C12.3185 26.1868 13.1216 25.9647 13.824 25.5445C14.5264 25.1244 15.102 24.522 15.4898 23.8012C15.5081 23.7667 15.5171 23.728 15.516 23.6889C15.5149 23.6499 15.5037 23.6118 15.4835 23.5783C15.4634 23.5448 15.4349 23.5172 15.4008 23.498C15.3668 23.4788 15.3284 23.4687 15.2893 23.4688H7.71191C7.67279 23.4686 7.63429 23.4786 7.60018 23.4978C7.56607 23.5169 7.5375 23.5446 7.51725 23.5781C7.497 23.6115 7.48577 23.6497 7.48465 23.6888C7.48352 23.7279 7.49255 23.7666 7.51084 23.8012C7.89856 24.5219 8.4741 25.1243 9.17642 25.5444C9.87873 25.9645 10.6817 26.1867 11.5 26.1875Z"/>
</mask>
<path d="M21.9264 18.332C21.8324 18.2187 21.7401 18.1054 21.6495 17.9961C20.4034 16.4889 19.6495 15.5793 19.6495 11.3125C19.6495 9.10355 19.121 7.29105 18.0794 5.93168C17.3114 4.92744 16.2731 4.16563 14.9047 3.60262C14.8871 3.59282 14.8714 3.57997 14.8583 3.56467C14.3661 1.91643 13.0191 0.8125 11.5 0.8125C9.98093 0.8125 8.63459 1.91643 8.14238 3.56297C8.12924 3.57771 8.11374 3.59015 8.0965 3.59979C4.9031 4.91441 3.35115 7.43662 3.35115 11.3108C3.35115 15.5793 2.5984 16.4889 1.35117 17.9944C1.26054 18.1038 1.16822 18.2148 1.0742 18.3303C0.831322 18.6232 0.677441 18.9796 0.630765 19.3572C0.584089 19.7348 0.646571 20.1179 0.810818 20.4611C1.16029 21.1975 1.90511 21.6546 2.75529 21.6546H20.251C21.0972 21.6546 21.837 21.198 22.1876 20.4651C22.3525 20.1218 22.4156 19.7384 22.3693 19.3603C22.323 18.9823 22.1693 18.6254 21.9264 18.332ZM11.5 26.1875C12.3185 26.1868 13.1216 25.9647 13.824 25.5445C14.5264 25.1244 15.102 24.522 15.4898 23.8012C15.5081 23.7667 15.5171 23.728 15.516 23.6889C15.5149 23.6499 15.5037 23.6118 15.4835 23.5783C15.4634 23.5448 15.4349 23.5172 15.4008 23.498C15.3668 23.4788 15.3284 23.4687 15.2893 23.4688H7.71191C7.67279 23.4686 7.63429 23.4786 7.60018 23.4978C7.56607 23.5169 7.5375 23.5446 7.51725 23.5781C7.497 23.6115 7.48577 23.6497 7.48465 23.6888C7.48352 23.7279 7.49255 23.7666 7.51084 23.8012C7.89856 24.5219 8.4741 25.1243 9.17642 25.5444C9.87873 25.9645 10.6817 26.1867 11.5 26.1875Z" fill="#00BF71"/>
<path d="M21.9264 18.332L23.8521 16.7377L23.8501 16.7353L21.9264 18.332ZM21.6495 17.9961L19.7227 19.5891L19.7248 19.5917L21.6495 17.9961ZM18.0794 5.93168L16.0936 7.45043L16.095 7.45224L18.0794 5.93168ZM14.9047 3.60262L13.6894 5.78734L13.8177 5.85872L13.9535 5.91459L14.9047 3.60262ZM14.8583 3.56467L12.4628 4.28002L12.6146 4.78824L12.9596 5.19106L14.8583 3.56467ZM8.14238 3.56297L10.0089 5.22618L10.3785 4.81135L10.5376 4.27899L8.14238 3.56297ZM8.0965 3.59979L9.04819 5.91156L9.18595 5.85484L9.31601 5.78217L8.0965 3.59979ZM1.35117 17.9944L3.2758 19.59L3.27635 19.5893L1.35117 17.9944ZM1.0742 18.3303L2.99866 19.9261L3.00603 19.9172L3.01332 19.9082L1.0742 18.3303ZM0.810818 20.4611L3.06936 19.3892L3.06591 19.382L0.810818 20.4611ZM22.1876 20.4651L19.9342 19.3824L19.9323 19.3863L22.1876 20.4651ZM11.5 26.1875L11.4977 28.6875L11.5021 28.6875L11.5 26.1875ZM15.4898 23.8012L17.6914 24.9857L17.6956 24.9778L17.6998 24.97L15.4898 23.8012ZM15.2893 23.4688V25.9688L15.2918 25.9687L15.2893 23.4688ZM7.71191 23.4688L7.70314 25.9688H7.71191V23.4688ZM7.51084 23.8012L5.30086 24.97L5.30501 24.9778L5.30922 24.9857L7.51084 23.8012ZM23.8501 16.7353C23.6966 16.5504 23.7427 16.6039 23.5741 16.4006L19.7248 19.5917C19.7375 19.607 19.9682 19.8871 20.0027 19.9287L23.8501 16.7353ZM23.5762 16.4032C22.9396 15.6331 22.7113 15.3302 22.5324 14.8368C22.3346 14.2915 22.1495 13.3375 22.1495 11.3125H17.1495C17.1495 13.5543 17.3413 15.1885 17.832 16.5415C18.3415 17.9465 19.1133 18.852 19.7227 19.5891L23.5762 16.4032ZM22.1495 11.3125C22.1495 8.71492 21.5261 6.31949 20.0638 4.41112L16.095 7.45224C16.716 8.26262 17.1495 9.49219 17.1495 11.3125H22.1495ZM20.0652 4.41293C18.9859 3.00174 17.5632 1.99305 15.8559 1.29064L13.9535 5.91459C14.9831 6.3382 15.6368 6.85315 16.0936 7.45043L20.0652 4.41293ZM16.12 1.41789C16.3616 1.55226 16.5772 1.72849 16.7569 1.93828L12.9596 5.19106C13.1655 5.43145 13.4126 5.63338 13.6894 5.78734L16.12 1.41789ZM17.2537 2.84932C16.502 0.331951 14.3105 -1.6875 11.5 -1.6875V3.3125C11.7277 3.3125 12.2301 3.5009 12.4628 4.28002L17.2537 2.84932ZM11.5 -1.6875C8.68966 -1.6875 6.49898 0.331763 5.74711 2.84694L10.5376 4.27899C10.7702 3.50109 11.2722 3.3125 11.5 3.3125V-1.6875ZM6.27591 1.89975C6.448 1.70663 6.65116 1.5436 6.877 1.4174L9.31601 5.78217C9.57632 5.63671 9.81048 5.44879 10.0089 5.22618L6.27591 1.89975ZM7.14481 1.28801C5.1395 2.11354 3.50319 3.38789 2.39715 5.18524C1.30507 6.95989 0.85115 9.04681 0.85115 11.3108H5.85115C5.85115 9.70065 6.17321 8.58936 6.65545 7.8057C7.12374 7.04473 7.8601 6.40066 9.04819 5.91156L7.14481 1.28801ZM0.85115 11.3108C0.85115 13.3372 0.6662 14.2915 0.468547 14.8367C0.290046 15.3291 0.0623614 15.6314 -0.574007 16.3995L3.27635 19.5893C3.8872 18.852 4.65951 17.9467 5.16919 16.5408C5.65972 15.1877 5.85115 13.5529 5.85115 11.3108H0.85115ZM-0.573465 16.3989C-0.660496 16.5039 -0.761867 16.6258 -0.864925 16.7524L3.01332 19.9082C3.09831 19.8038 3.18158 19.7036 3.2758 19.59L-0.573465 16.3989ZM-0.850262 16.7345C-1.39803 17.3951 -1.74508 18.1988 -1.85035 19.0505L3.11188 19.6639C3.09996 19.7603 3.06067 19.8513 2.99866 19.9261L-0.850262 16.7345ZM-1.85035 19.0505C-1.95562 19.9022 -1.81471 20.7662 -1.44427 21.5403L3.06591 19.382C3.10785 19.4696 3.1238 19.5674 3.11188 19.6639L-1.85035 19.0505ZM-1.44771 21.5331C-0.661911 23.1887 0.992989 24.1546 2.75529 24.1546V19.1546C2.78081 19.1546 2.83641 19.1624 2.90298 19.2032C2.97085 19.2449 3.03202 19.3106 3.06935 19.3892L-1.44771 21.5331ZM2.75529 24.1546H20.251V19.1546H2.75529V24.1546ZM20.251 24.1546C22.0165 24.1546 23.6584 23.1837 24.4428 21.5439L19.9323 19.3863C19.968 19.3118 20.027 19.2473 20.0954 19.2052C20.163 19.1636 20.2214 19.1546 20.251 19.1546V24.1546ZM24.4409 21.5478C24.8129 20.7737 24.9551 19.9091 24.8508 19.0566L19.8878 19.6641C19.876 19.5677 19.8921 19.4699 19.9342 19.3824L24.4409 21.5478ZM24.8508 19.0566C24.7464 18.204 24.3998 17.3993 23.8521 16.7377L20.0008 19.9263C19.9388 19.8515 19.8996 19.7605 19.8878 19.6641L24.8508 19.0566ZM11.5021 28.6875C12.7718 28.6865 14.0175 28.3418 15.1072 27.6901L12.5407 23.399C12.2256 23.5875 11.8653 23.6872 11.498 23.6875L11.5021 28.6875ZM15.1072 27.6901C16.1969 27.0383 17.0899 26.1038 17.6914 24.9857L13.2882 22.6168C13.1142 22.9402 12.8559 23.2105 12.5407 23.399L15.1072 27.6901ZM17.6998 24.97C17.9196 24.5542 18.0282 24.0887 18.015 23.6187L13.017 23.7592C13.006 23.3673 13.0965 22.9791 13.2798 22.6325L17.6998 24.97ZM18.015 23.6187C18.0018 23.1486 17.8672 22.69 17.6244 22.2872L13.3427 24.8694C13.1402 24.5336 13.028 24.1511 13.017 23.7592L18.015 23.6187ZM17.6244 22.2872C17.3815 21.8845 17.0386 21.5515 16.629 21.3205L14.1726 25.6755C13.8311 25.4828 13.5452 25.2051 13.3427 24.8694L17.6244 22.2872ZM16.629 21.3205C16.2194 21.0894 15.757 20.9683 15.2868 20.9688L15.2918 25.9687C14.8997 25.9691 14.5142 25.8681 14.1726 25.6755L16.629 21.3205ZM15.2893 20.9688H7.71191V25.9688H15.2893V20.9688ZM7.72069 20.9688C7.24983 20.9671 6.78659 21.0874 6.37607 21.318L8.82429 25.6776C8.482 25.8698 8.09575 25.9701 7.70314 25.9687L7.72069 20.9688ZM6.37607 21.318C5.96554 21.5485 5.6217 21.8814 5.37803 22.2843L9.65647 24.8718C9.45329 25.2078 9.16659 25.4853 8.82429 25.6776L6.37607 21.318ZM5.37803 22.2843C5.13437 22.6872 4.9992 23.1464 4.98568 23.617L9.98362 23.7606C9.97234 24.153 9.85963 24.5359 9.65647 24.8718L5.37803 22.2843ZM4.98568 23.617C4.97215 24.0877 5.08076 24.5538 5.30086 24.97L9.72081 22.6325C9.90433 22.9795 9.99489 23.3681 9.98362 23.7606L4.98568 23.617ZM5.30922 24.9857C5.91069 26.1037 6.80353 27.0381 7.89304 27.6898L10.4598 23.3989C10.1447 23.2104 9.88643 22.9402 9.71246 22.6168L5.30922 24.9857ZM7.89304 27.6898C8.98256 28.3416 10.2281 28.6863 11.4977 28.6875L11.5024 23.6875C11.1352 23.6872 10.7749 23.5875 10.4598 23.3989L7.89304 27.6898Z" fill="#00BF71" mask="url(#path-1-inside-1_1149_4106)"/>
</svg>
